# xmcd CD database file
#
# Track frame offsets:
#	150
#	15141
#	28471
#	46764
#	64560
#	83239
#	96940
#	117610
#	127595
#	144836
#	157383
#	178022
#
# Disc length: 2545 seconds
#
# Revision: 6
# Processed by: cddbd v1.5.2PL0 Copyright (c) Steve Scherf et al.
# Submitted via: CDex 1.51
#
DISCID=9709ef0c
DTITLE=Mira Kubasinska and Breakout - Gold CD1
DYEAR=1996
DGENRE=Blues
TTITLE0=Poszlabym Za Toba
TTITLE1=Nie Ukrywaj Wszystko Wiem
TTITLE2=Na Drugim Brzegu Teczy
TTITLE3=Kwiaty Nam Powiedly
TTITLE4=Wyspa
TTITLE5=Nie Zostawiaj Nic
TTITLE6=Liscie Zabral Wiatr
TTITLE7=Nie Zobaczysz Moich Lez
TTITLE8=Masz Na To Czas
TTITLE9=Mialam Caly Swiat
TTITLE10=Luiza
TTITLE11=Zaspiewam Ci Tak
EXTD=created by: Jim Serious YEAR: 1996
EXTT0=
EXTT1=
EXTT2=
EXTT3=
EXTT4=
EXTT5=
EXTT6=
EXTT7=
EXTT8=
EXTT9=
EXTT10=
EXTT11=
PLAYORDER=
